<svg width="73" height="37" viewBox="0 0 73 37" fill="none" xmlns="http://www.w3.org/2000/svg">
<rect y="2" width="73" height="35" rx="17.5" fill="#09090B"/>
<rect y="2" width="30" height="18" fill="#09090B"/>
<path d="M20.4 8.4H29.36V12.176H20.656C17.232 12.176 16.208 13.808 16.208 15.824V17.872H29.232V21.456H16.208V30H12.432V15.856C12.432 11.536 14.672 8.4 20.4 8.4ZM26.7708 8.4H30.5468V25.488C30.5468 26.224 30.9948 26.704 31.6668 26.704C32.2108 26.704 32.6267 26.352 32.8508 25.808L38.0988 12.016C38.9308 9.552 40.3387 8.016 43.1868 8.016C46.3548 8.016 47.9868 9.904 47.9868 12.72V25.488C47.9868 26.224 48.4348 26.704 49.0748 26.704C49.6508 26.704 50.0668 26.352 50.2908 25.808L56.7228 8.4H60.7868L54.0988 26.384C53.2348 28.848 51.8588 30.384 48.9788 30.384C45.7788 30.384 44.2108 28.496 44.2108 25.648V12.912C44.2108 12.144 43.7308 11.664 43.0908 11.664C42.5148 11.664 42.0988 12.048 41.8748 12.592L36.6268 26.384C35.8268 28.848 34.4508 30.384 31.5708 30.384C28.3388 30.384 26.7708 28.496 26.7708 25.648V8.4Z" fill="#FAFAFA"/>
</svg>
