<svg width="54" height="24" viewBox="0 0 54 24" fill="none" xmlns="http://www.w3.org/2000/svg">
<path d="M3.52 19.76H13.06V23H0.0700002V0.769998H3.52V19.76ZM22.0879 23.42C20.5479 23.42 19.1979 23.08 18.0379 22.4C16.8979 21.72 16.0079 20.77 15.3679 19.55C14.7279 18.33 14.4079 16.9 14.4079 15.26C14.4079 13.62 14.7279 12.19 15.3679 10.97C16.0079 9.75 16.8979 8.8 18.0379 8.12C19.1979 7.44 20.5479 7.1 22.0879 7.1C23.6279 7.1 24.9679 7.44 26.1079 8.12C27.2479 8.8 28.1379 9.75 28.7779 10.97C29.4179 12.19 29.7379 13.62 29.7379 15.26C29.7379 16.9 29.4179 18.33 28.7779 19.55C28.1379 20.77 27.2479 21.72 26.1079 22.4C24.9679 23.08 23.6279 23.42 22.0879 23.42ZM22.0879 20.42C23.3879 20.42 24.4379 19.95 25.2379 19.01C26.0379 18.05 26.4379 16.8 26.4379 15.26C26.4379 13.72 26.0379 12.48 25.2379 11.54C24.4379 10.6 23.3879 10.13 22.0879 10.13C20.7679 10.13 19.7079 10.6 18.9079 11.54C18.1079 12.48 17.7079 13.72 17.7079 15.26C17.7079 16.8 18.1079 18.05 18.9079 19.01C19.7079 19.95 20.7679 20.42 22.0879 20.42ZM44.3139 19.49C44.5139 19.77 44.6639 19.95 44.7639 20.03C44.8839 20.11 45.0639 20.15 45.3039 20.15H46.5339V23H45.0639C44.3639 23 43.8139 22.96 43.4139 22.88C43.0339 22.78 42.6939 22.58 42.3939 22.28C42.1139 21.98 41.7739 21.51 41.3739 20.87L38.3739 16.16L35.8539 18.77V23H32.6139V0.769998H35.8539V14.27H36.1839L42.7239 7.55H46.6239L40.6539 13.76L44.3139 19.49ZM51.4502 4.67C50.8702 4.67 50.3602 4.46 49.9202 4.04C49.5002 3.6 49.2902 3.09 49.2902 2.51C49.2902 1.93 49.5002 1.42 49.9202 0.979999C50.3602 0.539999 50.8702 0.319999 51.4502 0.319999C52.0502 0.319999 52.5602 0.539999 52.9802 0.979999C53.4202 1.42 53.6402 1.93 53.6402 2.51C53.6402 3.09 53.4202 3.6 52.9802 4.04C52.5602 4.46 52.0502 4.67 51.4502 4.67ZM50.4302 23V10.37H47.7302V7.55H53.6702V23H50.4302Z" fill="#0F172A"/>
</svg>
